<?xml version="1.0" encoding="UTF-8" standalone="no"?>
<svg
   width="220px"
   height="27px"
   viewBox="0 0 219 27"
   version="1.1"
   id="svg40"
   sodipodi:docname="logo-white-inkscape-recolored.svg"
   inkscape:version="1.2.2 (732a01da63, 2022-12-09)"
   xmlns:inkscape="http://www.inkscape.org/namespaces/inkscape"
   xmlns:sodipodi="http://sodipodi.sourceforge.net/DTD/sodipodi-0.dtd"
   xmlns="http://www.w3.org/2000/svg"
   xmlns:svg="http://www.w3.org/2000/svg">
  <sodipodi:namedview
     id="namedview42"
     pagecolor="#ffffff"
     bordercolor="#000000"
     borderopacity="0.25"
     inkscape:showpageshadow="2"
     inkscape:pageopacity="0.0"
     inkscape:pagecheckerboard="0"
     inkscape:deskcolor="#d1d1d1"
     showgrid="false"
     inkscape:zoom="5.9545455"
     inkscape:cx="108.99237"
     inkscape:cy="13.519084"
     inkscape:window-width="1920"
     inkscape:window-height="991"
     inkscape:window-x="-9"
     inkscape:window-y="-9"
     inkscape:window-maximized="1"
     inkscape:current-layer="svg40" />
  <defs
     id="defs17">
    <clipPath
       id="clip1">
      <path
         d="M 0.652344 3.761719 L 186.285156 3.761719 L 186.285156 23.457031 L 0.652344 23.457031 Z M 0.652344 3.761719 "
         id="path2" />
    </clipPath>
    <clipPath
       id="clip2">
      <path
         d="M 190.925781 0.109375 L 199 0.109375 L 199 27 L 190.925781 27 Z M 190.925781 0.109375 "
         id="path5" />
    </clipPath>
    <clipPath
       id="clip3">
      <path
         d="M 199 0.109375 L 208 0.109375 L 208 27 L 199 27 Z M 199 0.109375 "
         id="path8" />
    </clipPath>
    <clipPath
       id="clip4">
      <path
         d="M 209 0.109375 L 217 0.109375 L 217 27 L 209 27 Z M 209 0.109375 "
         id="path11" />
    </clipPath>
    <clipPath
       id="clip5">
      <path
         d="M 208 0.109375 L 217 0.109375 L 217 27 L 208 27 Z M 208 0.109375 "
         id="path14" />
    </clipPath>
  </defs>
  <g
     clip-path="url(#clip1)"
     clip-rule="nonzero"
     id="g21"
     style="fill:#ffffff">
    <path
       style="fill:#ffffff;fill-opacity:1;fill-rule:nonzero;stroke:none"
       d="M 7.480469,14.652344 C 5.316406,14.027344 3.742188,13.261719 2.753906,12.355469 1.773438,11.449219 1.28125,10.324219 1.28125,8.992188 1.28125,7.484375 1.882812,6.234375 3.082031,5.246094 4.289062,4.257812 5.855469,3.761719 7.78125,3.761719 c 1.3125,0 2.480469,0.253906 3.511719,0.765625 1.027343,0.511718 1.828125,1.214844 2.394531,2.109375 0.5625,0.894531 0.84375,1.871093 0.84375,2.933593 h -2.535156 c 0,-1.160156 -0.367188,-2.066406 -1.101563,-2.730468 C 10.160156,6.175781 9.121094,5.84375 7.78125,5.84375 c -1.246094,0 -2.214844,0.273438 -2.910156,0.824219 -0.695313,0.546875 -1.046875,1.308593 -1.046875,2.28125 0,0.785156 0.332031,1.445312 0.996093,1.984375 0.660157,0.539062 1.785157,1.03125 3.375,1.476562 1.585938,0.449219 2.832032,0.945313 3.726563,1.484375 0.898437,0.539063 1.566406,1.167969 1.996094,1.886719 0.433593,0.722656 0.652343,1.570312 0.652343,2.542969 0,1.554687 -0.605468,2.796875 -1.8125,3.734375 -1.210937,0.933594 -2.824218,1.402344 -4.84375,1.402344 -1.316406,0 -2.542968,-0.253907 -3.679687,-0.761719 C 3.097656,22.195312 2.21875,21.503906 1.597656,20.628906 0.980469,19.75 0.671875,18.753906 0.671875,17.640625 h 2.539063 c 0,1.15625 0.429687,2.074219 1.28125,2.746094 0.855468,0.671875 1.996093,1.007812 3.421874,1.007812 1.332032,0 2.347657,-0.273437 3.054688,-0.820312 0.710938,-0.542969 1.066406,-1.28125 1.066406,-2.222657 0,-0.941406 -0.328125,-1.667968 -0.984375,-2.175781 -0.65625,-0.515625 -1.847656,-1.023437 -3.570312,-1.523437 z m 10.320312,-10.625 h 3.253907 l 6.253906,15.640625 6.25,-15.640625 h 3.269531 V 23.195312 H 34.3125 v -7.464843 l 0.230469,-8.054688 -6.277344,15.519531 h -1.925781 l -6.269532,-15.480468 0.25,8.015625 v 7.464843 H 17.800781 Z M 53.902344,23.195312 52.074219,18.191406 H 44.0625 l -1.796875,5.003906 H 39.664062 L 46.96875,4.027344 h 2.207031 l 7.316407,19.167968 z M 48.070312,7.148438 44.828125,16.113281 h 6.5 z M 61.597656,4.027344 v 17.101562 h 9.0625 v 2.066406 H 59.0625 V 4.027344 Z m 14.46875,0 v 17.101562 h 9.0625 v 2.066406 H 73.53125 V 4.027344 Z M 101.6875,15.6875 h -4.5 v 7.507812 H 94.664062 V 4.027344 h 7.050778 c 2.08985,0 3.73047,0.535156 4.91797,1.605468 1.1875,1.070313 1.78125,2.488282 1.78125,4.253907 0,1.859375 -0.58203,3.292969 -1.73828,4.296875 -1.16406,1.003906 -2.82422,1.503906 -4.98828,1.503906 z m -4.5,-9.578125 V 13.625 h 4.52734 c 1.34766,0 2.38282,-0.320312 3.09766,-0.957031 0.71875,-0.632813 1.07813,-1.554688 1.07813,-2.753907 0,-1.144531 -0.35938,-2.054687 -1.07813,-2.738281 -0.71484,-0.6875 -1.69922,-1.042969 -2.95312,-1.066406 z m 16.97656,-2.082031 v 17.101562 h 9.0625 v 2.066406 H 111.62891 V 4.027344 Z m 24.57422,19.167968 -1.83203,-5.003906 h -8.00781 l -1.79688,5.003906 h -2.60547 l 7.30469,-19.167968 h 2.20703 l 7.31641,19.167968 z m -5.83203,-16.046874 -3.24609,8.964843 h 6.5 z m 22.50781,-3.121094 v 2.082031 h -6.14453 v 17.085937 h -2.51172 V 6.109375 H 140.625 V 4.027344 Z m 13.64844,8.242187 v 2.066407 h -8.29297 v 6.792968 h 9.62891 v 2.066406 H 158.24609 V 4.027344 h 12.01953 v 2.082031 h -9.49609 v 6.160156 z m 10.10547,2.382813 c -2.16016,-0.625 -3.73828,-1.390625 -4.72266,-2.296875 -0.98437,-0.90625 -1.47265,-2.03125 -1.47265,-3.363281 0,-1.507813 0.60156,-2.757813 1.80468,-3.746094 1.20313,-0.988282 2.76563,-1.484375 4.69141,-1.484375 1.31641,0 2.48828,0.253906 3.51562,0.765625 1.02735,0.511718 1.82422,1.214844 2.39063,2.109375 0.5625,0.894531 0.84766,1.871093 0.84766,2.933593 h -2.53516 c 0,-1.160156 -0.36719,-2.066406 -1.10156,-2.730468 -0.73828,-0.664063 -1.77344,-0.996094 -3.11719,-0.996094 -1.23828,0 -2.20703,0.273438 -2.90234,0.824219 -0.69922,0.546875 -1.05079,1.308593 -1.05079,2.28125 0,0.785156 0.33204,1.445312 0.9961,1.984375 0.66015,0.539062 1.78515,1.03125 3.37109,1.476562 1.58985,0.449219 2.83594,0.945313 3.73438,1.484375 0.89843,0.539063 1.5625,1.167969 1.99609,1.886719 0.43359,0.722656 0.65234,1.570312 0.65234,2.542969 0,1.554687 -0.60546,2.796875 -1.8164,3.734375 -1.20703,0.933594 -2.82422,1.402344 -4.84375,1.402344 -1.3125,0 -2.53906,-0.253907 -3.67969,-0.761719 -1.13672,-0.503907 -2.01562,-1.195313 -2.63281,-2.070313 -0.61719,-0.878906 -0.92578,-1.875 -0.92578,-2.988281 h 2.53515 c 0,1.15625 0.42578,2.074219 1.28125,2.746094 0.85157,0.671875 1.99219,1.007812 3.42188,1.007812 1.32812,0 2.34765,-0.273437 3.05859,-0.820312 0.70703,-0.542969 1.0625,-1.28125 1.0625,-2.222657 0,-0.941406 -0.32812,-1.667968 -0.98437,-2.175781 -0.65625,-0.515625 -1.84766,-1.023437 -3.57422,-1.523437 z m 0,0"
       id="path19" />
  </g>
  <g
     clip-path="url(#clip2)"
     clip-rule="nonzero"
     id="g25"
     style="fill:#ffffff">
    <path
       style="fill:#ffffff;fill-opacity:1;fill-rule:nonzero;stroke:#ffffff;stroke-width:1;stroke-linecap:butt;stroke-linejoin:miter;stroke-miterlimit:4;stroke-opacity:1"
       d="M 0.00156317,0 H 15.814924 V 57.866405 H 0.00156317 Z m 0,0"
       transform="matrix(0.469342,0,0,0.47044,190.92505,0)"
       id="path23" />
  </g>
  <g
     clip-path="url(#clip3)"
     clip-rule="nonzero"
     id="g29"
     style="fill:#cccccc">
    <path
       style="fill:#cccccc;fill-opacity:0.74902;fill-rule:nonzero;stroke:#ffffff;stroke-width:1;stroke-linecap:butt;stroke-linejoin:miter;stroke-miterlimit:4;stroke-opacity:1"
       d="M 19.28554,0 H 35.107224 V 57.866405 H 19.28554 Z m 0,0"
       transform="matrix(0.469342,0,0,0.47044,190.92505,0)"
       id="path27" />
  </g>
  <g
     clip-path="url(#clip4)"
     clip-rule="nonzero"
     id="g33"
     style="fill:#4d4d4d">
    <path
       style="fill:#4d4d4d;fill-opacity:0.501961;fill-rule:nonzero;stroke:none"
       d="m 209.03125,0 h 7.42187 v 27.222656 h -7.42187 z m 0,0"
       id="path31" />
  </g>
  <g
     clip-path="url(#clip5)"
     clip-rule="nonzero"
     id="g37">
    <path
       style="fill:none;stroke:#ffffff;stroke-width:1;stroke-linecap:butt;stroke-linejoin:miter;stroke-miterlimit:4;stroke-opacity:1"
       d="M 38.57784,0 H 54.391201 V 57.866405 H 38.57784 Z m 0,0"
       transform="matrix(0.469342,0,0,0.47044,190.92505,0)"
       id="path35" />
  </g>
</svg>
